# Blender 4.0.2
# www.blender.org
mtllib wall.mtl
o Cube.001
v -6.033994 -0.027849 -5.544278
v -6.033994 -0.027849 -5.544278
v -6.033994 5.907095 -5.544278
v -6.033994 5.907095 -5.544278
v 4.440240 -0.027849 -5.544278
v 4.440240 -0.027849 -5.544278
v 4.440240 5.907095 -5.544278
v 4.440240 5.907095 -5.544278
vn -0.0000 -0.0000 1.0000
vn -0.0000 -0.0000 -1.0000
vt 0.375000 0.000000
vt 0.625000 0.250000
vt 0.375000 0.250000
vt 0.625000 0.500000
vt 0.375000 0.500000
vt 0.625000 0.750000
vt 0.375000 0.750000
vt 0.625000 1.000000
vt 0.375000 1.000000
vt 0.125000 0.750000
vt 0.125000 0.500000
vt 0.875000 0.500000
vt 0.625000 0.000000
vt 0.875000 0.750000
s 0
f 1/1/1 4/2/1 3/3/1
f 3/3/1 8/4/1 7/5/1
f 7/5/1 6/6/1 5/7/1
f 5/7/1 2/8/1 1/9/1
f 7/5/2 1/10/2 3/11/2
f 4/12/1 6/6/1 8/4/1
f 1/1/1 2/13/1 4/2/1
f 3/3/1 4/2/1 8/4/1
f 7/5/1 8/4/1 6/6/1
f 5/7/1 6/6/1 2/8/1
f 7/5/2 5/7/2 1/10/2
f 4/12/1 2/14/1 6/6/1
o Cube.002
v -6.035213 -0.030580 3.930367
v -6.035213 -0.030580 3.930367
v -6.035213 5.904365 3.930367
v -6.035213 5.904365 3.930367
v -6.035214 -0.030580 -5.541015
v -6.035214 -0.030580 -5.541015
v -6.035213 5.904365 -5.541015
v -6.035213 5.904365 -5.541015
vn 1.0000 -0.0000 -0.0000
vn -1.0000 -0.0000 -0.0000
vt 0.375000 0.000000
vt 0.625000 0.250000
vt 0.375000 0.250000
vt 0.625000 0.500000
vt 0.375000 0.500000
vt 0.625000 0.750000
vt 0.375000 0.750000
vt 0.625000 1.000000
vt 0.375000 1.000000
vt 0.125000 0.750000
vt 0.125000 0.500000
vt 0.875000 0.500000
vt 0.625000 0.000000
vt 0.875000 0.750000
s 0
f 9/15/3 12/16/3 11/17/3
f 11/17/3 16/18/3 15/19/3
f 15/19/3 14/20/3 13/21/3
f 13/21/3 10/22/3 9/23/3
f 15/19/4 9/24/4 11/25/4
f 12/26/3 14/20/3 16/18/3
f 9/15/3 10/27/3 12/16/3
f 11/17/3 12/16/3 16/18/3
f 15/19/3 16/18/3 14/20/3
f 13/21/3 14/20/3 10/22/3
f 15/19/4 13/21/4 9/24/4
f 12/26/3 10/28/3 14/20/3
